HIERARCHY
ROOT Hips
{
	OFFSET -3.958830 18.904000 13.208200
	CHANNELS 6 Xposition Yposition Zposition Zrotation Yrotation Xrotation 
	JOINT LHipJoint
	{
		OFFSET 0.000000 0.000000 0.000000
		CHANNELS 3 Zrotation Yrotation Xrotation
		JOINT LeftUpLeg
		{
			OFFSET 1.800000 -1.400000 0.085000
			CHANNELS 3 Zrotation Yrotation Xrotation
			JOINT LeftLeg
			{
				OFFSET 2.215000 -6.000000 0.000000
				CHANNELS 3 Zrotation Yrotation Xrotation
				JOINT LeftFoot
				{
					OFFSET 2.500000 -6.900000 0.000000
					CHANNELS 3 Zrotation Yrotation Xrotation
					JOINT LeftToeBase
					{
						OFFSET 0.200000 -0.500000 1.950000
						CHANNELS 3 Zrotation Yrotation Xrotation
						End Site
						{
							OFFSET 0.000000 0.000000 0.000000
						}
					}
				}
			}
		}
	}
	JOINT RHipJoint
	{
		OFFSET 0.000000 0.000000 0.000000
		CHANNELS 3 Zrotation Yrotation Xrotation
		JOINT RightUpLeg
		{
			OFFSET -1.800000 -1.400000 0.085000
			CHANNELS 3 Zrotation Yrotation Xrotation
			JOINT RightLeg
			{
				OFFSET -2.215000 -6.000000 0.000000
				CHANNELS 3 Zrotation Yrotation Xrotation
				JOINT RightFoot
				{
					OFFSET -2.500000 -6.900000 0.000000
					CHANNELS 3 Zrotation Yrotation Xrotation
					JOINT RightToeBase
					{
						OFFSET -0.200000 -0.500000 1.950000
						CHANNELS 3 Zrotation Yrotation Xrotation
						End Site
						{
							OFFSET 0.000000 0.000000 0.000000
						}
					}
				}
			}
		}
	}
	JOINT LowerBack
	{
		OFFSET 0.000000 0.000000 0.000000
		CHANNELS 3 Zrotation Yrotation Xrotation
		JOINT Spine
		{
			OFFSET -0.087000 1.940000 -0.288900
			CHANNELS 3 Zrotation Yrotation Xrotation
			JOINT Spine1
			{
				OFFSET 0.000000 1.950000 0.060000
				CHANNELS 3 Zrotation Yrotation Xrotation
				JOINT Neck
				{
					OFFSET 0.000000 0.000000 0.000000
					CHANNELS 3 Zrotation Yrotation Xrotation
					JOINT Neck1
					{
						OFFSET 0.000000 1.600000 0.340000
						CHANNELS 3 Zrotation Yrotation Xrotation
						JOINT Head
						{
							OFFSET 0.000000 1.667000 -0.240000
							CHANNELS 3 Zrotation Yrotation Xrotation
							End Site
							{
								OFFSET 0.000000 0.000000 0.000000
							}
						}
					}
				}
				JOINT LeftShoulder
				{
					OFFSET 0.000000 0.000000 0.000000
					CHANNELS 3 Zrotation Yrotation Xrotation
					JOINT LeftArm
					{
						OFFSET 2.700000 1.550000 -0.730000
						CHANNELS 3 Zrotation Yrotation Xrotation
						JOINT LeftForeArm
						{
							OFFSET 5.450000 0.000000 0.000000
							CHANNELS 3 Zrotation Yrotation Xrotation
							JOINT LeftHand
							{
								OFFSET 3.450000 0.000000 0.000000
								CHANNELS 3 Zrotation Yrotation Xrotation
								JOINT LeftHandIndex1
								{
									OFFSET 0.750000 0.000000 0.000000
									CHANNELS 3 Zrotation Yrotation Xrotation
									End Site
									{
										OFFSET 0.000000 0.000000 0.000000
									}
								}
							}
						}
					}
				}
				JOINT RightShoulder
				{
					OFFSET 0.000000 0.000000 0.000000
					CHANNELS 3 Zrotation Yrotation Xrotation
					JOINT RightArm
					{
						OFFSET -2.700000 1.550000 -0.730000
						CHANNELS 3 Zrotation Yrotation Xrotation
						JOINT RightForeArm
						{
							OFFSET -5.450000 0.000000 0.000000
							CHANNELS 3 Zrotation Yrotation Xrotation
							JOINT RightHand
							{
								OFFSET -3.450000 0.000000 0.000000
								CHANNELS 3 Zrotation Yrotation Xrotation
								JOINT RightHandIndex1
								{
									OFFSET -0.750000 0.000000 0.000000
									CHANNELS 3 Zrotation Yrotation Xrotation
									End Site
									{
										OFFSET 0.000000 0.000000 0.000000
									}
								}
							}
						}
					}
				}
			}
		}
	}
}
MOTION
Frames: 4
Frame Time: 0.016667
0.835060 16.160950 -0.883680 -4.958249 -21.400929 -3.195641 -15.819413 12.385295 4.973401 18.312446 -4.316651 -38.080192 -7.490097 19.994963 58.137616 1.165461 12.398814 0.449080 0.239980 -0.273110 0.150030 17.958417 -8.733296 2.931603 -19.558486 6.299937 -33.532872 7.118685 -12.817179 49.222838 -0.855572 -7.964051 1.809173 -0.225900 0.375450 0.283490 -2.176995 -4.160229 -9.155195 0.932407 -0.891643 27.855709 6.227829 0.603778 -3.570176 2.897337 -4.922690 -11.028863 -10.097807 10.183791 33.478378 -3.633930 9.452450 -0.676000 -15.001185 -2.422993 5.637211 -36.838704 17.934323 -8.283548 -12.428295 -7.210418 -1.732643 -3.886762 3.005068 0.506500 0.226770 -0.187290 0.253260 10.552924 9.560569 4.873085 20.490924 -6.607065 -15.443452 -32.230270 64.680795 -16.868773 1.473662 -1.300258 -0.168570 0.070980 0.063170 -0.246890 
0.891320 16.230440 -0.888440 -5.237081 -21.994851 -2.879516 -15.771667 12.448207 4.832384 17.385721 -3.793379 -37.704291 -6.637183 19.196829 57.083113 1.021433 12.132045 0.532276 0.183840 -0.349800 0.163460 17.969064 -8.921648 2.938312 -19.452714 6.558418 -32.727197 7.867998 -12.337228 46.708580 -0.734385 -7.575717 1.943901 -0.237450 0.409230 0.273760 -2.235255 -3.818439 -9.054517 1.952603 -0.141780 26.633870 5.518232 1.441379 -2.481512 3.357706 -4.038347 -10.796162 -8.233270 8.611941 33.222467 -6.476140 9.905560 -0.827180 -15.346742 -2.412355 5.403801 -35.743549 18.103921 -7.795260 -12.088645 -4.714359 -1.997390 -3.992952 2.890807 0.509420 0.278950 -0.222280 0.218270 9.770546 9.245947 4.735497 19.817560 -5.098913 -14.800308 -31.804214 62.731106 -15.903950 1.458162 -1.273774 -0.228250 0.113650 0.105350 -0.286410 
1.022170 16.408840 -0.830840 -5.920228 -23.233943 -1.069897 -15.604257 12.416659 4.455677 14.844697 -3.053011 -36.931937 -4.965151 17.201811 53.853540 0.733147 11.344684 0.795731 0.079610 -0.495000 0.103160 18.068634 -9.303727 3.121994 -20.242353 6.760545 -32.019439 11.407137 -12.110189 40.428602 -0.486270 -6.950602 2.136301 -0.246220 0.550940 0.282410 -2.607684 -2.810527 -8.790420 4.428546 0.753158 21.769562 4.442116 2.230576 -0.174504 3.308715 -3.190133 -10.336107 -6.156538 7.617198 31.987295 -7.088920 9.724450 2.815650 -14.641303 -1.851023 5.455891 -36.338497 19.668641 -7.713995 -11.498592 0.978079 -2.592608 -4.226546 2.789752 0.441160 0.409070 -0.351930 0.195240 8.856868 8.086171 3.923761 17.208957 -1.885400 -12.847042 -25.305079 61.432764 -12.066338 1.477447 -1.400006 -0.318680 0.145640 0.190580 -0.302060 
1.167720 16.651470 -0.805170 -5.610055 -23.695505 -0.741243 -15.396800 12.530632 3.992878 10.525624 -3.004709 -35.292911 -2.216975 14.227879 50.499936 0.472697 10.121965 1.204678 0.052680 -0.521140 0.048860 18.160868 -9.789308 3.281136 -21.807834 6.425187 -29.549362 15.756441 -11.854013 33.410474 -0.328969 -6.428651 2.313142 -0.236210 0.618370 0.271370 -3.002215 -1.933237 -8.480675 6.054268 1.880373 19.215157 3.169036 3.315080 1.060618 3.005246 -3.348988 -10.204532 -6.061826 7.551254 31.658059 -5.922880 8.920990 4.764140 -12.659866 -0.520226 5.485034 -36.732274 22.039758 -8.666039 -11.914732 1.624633 -2.826421 -4.283552 2.750493 0.396340 0.452830 -0.412570 0.211140 7.248017 7.048629 3.535797 17.040018 0.956729 -11.623995 -22.305747 60.417718 -10.294994 1.494153 -1.467913 -0.343320 0.161700 0.210470 -0.282230 
